<svg xmlns="http://www.w3.org/2000/svg" viewBox="251.10 -92.55 121.81 121.81">
<defs>
<linearGradient id="g" gradientUnits="userSpaceOnUse" x1="279" y1="-64.5" x2="345" y2="1.2">
<stop offset="0" stop-color="#E6C98C"/><stop offset="0.35" stop-color="#B98F4B"/><stop offset="0.55" stop-color="#8E6A30"/><stop offset="0.75" stop-color="#C9A462"/><stop offset="1" stop-color="#8A672E"/>
</linearGradient>
<linearGradient id="bg" x1="0" y1="0" x2="1" y2="1"><stop offset="0" stop-color="#FAF6EF"/><stop offset="1" stop-color="#E9DFD0"/></linearGradient>
</defs>
<rect x="251.10" y="-92.55" width="121.81" height="121.81" rx="26.80" fill="url(#bg)"/>
<path stroke="url(#g)" stroke-width="1.8" stroke-linejoin="round" d="M302.06 1.17Q296.306 1.17 291.772 -1.17Q287.237 -3.511 284.214 -7.558Q281.191 -11.605 280.069 -16.676Q278.948 -21.747 280.02 -27.111Q281.191 -32.474 284.555 -36.57Q287.92 -40.666 292.357 -43.006Q296.794 -45.347 301.085 -45.347Q303.523 -45.347 305.668 -44.567Q307.521 -43.884 309.081 -42.226Q311.422 -44.859 312.982 -47.395Q315.225 -50.905 315.225 -54.319Q315.225 -56.172 314.738 -57.195Q314.25 -58.219 313.567 -58.853Q312.885 -59.487 312.397 -60.072Q311.909 -60.657 311.909 -61.73Q311.909 -62.998 312.641 -63.729Q313.372 -64.461 314.543 -64.461Q316.493 -64.461 317.858 -62.657Q319.223 -60.852 319.223 -57.634Q319.223 -53.538 316.737 -49.345Q314.25 -45.152 310.203 -41.056Q306.156 -36.96 301.377 -33.059Q296.599 -29.158 291.918 -25.648Q287.822 -22.625 284.506 -19.992Q284.604 -19.504 284.701 -19.114Q286.067 -13.945 289.139 -10.142Q292.21 -6.339 296.404 -4.242Q300.597 -2.145 305.181 -2.145Q311.519 -2.145 316.395 -5.266Q321.271 -8.387 324.295 -14.628Q326.733 -19.797 327.415 -27.111Q326.342 -27.696 325.27 -28.281Q322.344 -29.841 319.614 -31.011Q316.883 -32.182 314.445 -32.182Q312.982 -32.182 312.202 -31.548Q311.422 -30.914 311.422 -30.134Q311.422 -29.158 311.812 -28.378L312.495 -26.72Q312.787 -25.843 312.787 -24.965Q312.787 -24.282 312.348 -23.551Q311.909 -22.82 310.642 -22.82Q309.667 -22.82 308.984 -23.454Q308.301 -24.087 308.301 -25.745Q308.301 -28.281 309.813 -30.426Q311.324 -32.572 313.762 -33.888Q316.2 -35.205 318.833 -35.205Q321.369 -35.205 324.099 -34.083Q326.83 -32.962 329.561 -31.499Q332.291 -30.036 334.875 -28.915Q337.46 -27.793 339.605 -27.793Q340.97 -27.793 341.702 -28.33Q342.433 -28.866 342.433 -29.549Q342.433 -30.524 341.994 -31.255Q341.556 -31.987 341.068 -32.767Q340.58 -33.547 340.58 -34.522Q340.58 -35.595 341.165 -36.082Q341.751 -36.57 342.823 -36.57Q343.799 -36.57 344.432 -36.034Q345.066 -35.497 345.066 -33.742Q345.066 -31.401 343.847 -29.256Q342.628 -27.111 340.58 -25.745Q338.532 -24.38 335.997 -24.38Q333.559 -24.38 330.828 -25.55Q329.853 -25.94 328.878 -26.428Q327.805 -18.139 324.782 -12.385Q321.076 -5.559 315.225 -2.194Q309.374 1.17 302.06 1.17ZM304.693 -37.935Q303.133 -40.861 300.792 -41.836Q298.257 -42.811 296.209 -42.811Q293.576 -42.811 291.186 -41.105Q288.797 -39.398 287.091 -36.57Q285.384 -33.742 284.506 -30.231Q283.629 -25.55 284.214 -21.357Q287.042 -23.697 290.358 -26.233Q294.648 -29.549 299.037 -33.059Q302.06 -35.497 304.693 -37.935Z" fill="url(#g)"/>
</svg>
